<?xml version="1.0" encoding="utf-8"?>
<!-- Generator: Adobe Illustrator 16.0.2, SVG Export Plug-In . SVG Version: 6.00 Build 0)  -->
<!DOCTYPE svg PUBLIC "-//W3C//DTD SVG 1.1//EN" "http://www.w3.org/Graphics/SVG/1.1/DTD/svg11.dtd">
<svg version="1.1" id="Layer_1" xmlns="http://www.w3.org/2000/svg" xmlns:xlink="http://www.w3.org/1999/xlink" x="0px" y="0px"
	 width="585px" height="330px" viewBox="0 0 585 330" enable-background="new 0 0 585 330" xml:space="preserve">
<g>
	<path fill-rule="evenodd" clip-rule="evenodd" fill="#222222" d="M585.535,118.2c0,50.386,0,100.771,0,151.156
		c-63.014,0-126.029,0-189.188,0c0,20.15,0,39.959-0.009,59.768c0,0.136-0.102,0.288-0.195,0.399
		c-0.086,0.104-0.224,0.162-0.683,0.477c-40.236-40.236-80.525-80.525-121.016-121.016c0,19.787,0,39.523,0,59.299
		c-73.272,0-146.2,0-219.03,0c-16.877-16.877-33.652-33.66-50.446-50.424c-1.117-1.115-2.383-2.08-3.58-3.114
		c0-51.036,0-102.071,0-153.107c62.345,0,124.691,0,187.372,0c0-20.013,0-39.743,0-60.069
		c41.102,41.102,81.735,81.735,122.667,122.666c0-20.961,0-41.666,0-62.482c72.59,0,144.846,0,217.174,0
		c17.734,17.734,35.535,35.544,53.355,53.335C583.074,116.203,584.34,117.166,585.535,118.2z"/>
</g>
<g>
	<path fill-rule="evenodd" clip-rule="evenodd" fill="none" d="M143.699,204.006c-20.617,0-40.766,0-60.636,0
		c-5.198-5.193-10.248-10.238-15.14-15.128c0-20.354,0-40.612,0-61.038c40.64,0,81.063,0,121.477,0
		c0.581-10.976,0.382-41.798-0.285-45.716c-55.748,0-111.496,0-167.243,0 M21.871,205c1.083,0.92,2.235,1.77,3.238,2.77
		c14.036,14.007,28.052,28.033,41.956,41.936c40.865,0,81.613,0,122.353,0c0.69-14.287,0.414-102.087-0.293-105.963
		c-35.253,0-70.472,0-105.62,0c14.838,14.839,29.622,29.622,44.83,44.83c4.643,0,9.961,0,15.437,0 M518.107,81.494
		c0,41.458,0,81.99,0,122.372c-25.475,0-50.616,0-75.924,0c0-40.435,0-80.709-0.006-120.984c0-0.142-0.072-0.299-0.154-0.42
		c-0.088-0.13-0.227-0.226-0.16-0.163c-15.248,0-30.312,0-45.367,0c-0.779,20.91-0.447,163.235,0.385,167.562
		c55.733,0,111.469,0,167.203,0 M564.084,126.983 M330.996,173.789c-41.058-41.058-81.353-81.353-121.705-121.705
		c0,65.821,0,131.709,0,197.591c12.723,0.604,41.727,0.389,45.832-0.364c0-29.984,0-60,0-90.455
		c40.617,40.617,80.926,80.927,121.482,121.482c0-66.432,0-132.319,0-198.048c-15.309,0-30.376,0-45.609,0
		C330.996,112.476,330.996,142.495,330.996,173.789z"/>
	<path fill-rule="evenodd" clip-rule="evenodd" fill="#6A8C8C" d="M143.771,188.572c-5.476,0-10.794,0-15.437,0
		c-15.208-15.208-29.991-29.991-44.83-44.83c35.147,0,70.367,0,105.62,0c0.707,3.876,0.983,91.676,0.293,105.963
		c-40.74,0-81.488,0-122.353,0c-13.904-13.902-27.92-27.929-41.956-41.936c-1.002-1-2.155-1.85-3.238-2.77
		c0-40.959,0-81.917,0-122.876c55.748,0,111.496,0,167.243,0c0.667,3.918,0.866,34.741,0.285,45.716c-40.413,0-80.836,0-121.477,0
		c0,20.425,0,40.683,0,61.038c4.892,4.89,9.942,9.935,15.14,15.128c19.871,0,40.02,0,60.636,0"/>
	<path fill-rule="evenodd" clip-rule="evenodd" fill="#6A8C8C" d="M564.084,126.983c0,40.958,0,81.917,0,122.876
		c-55.734,0-111.47,0-167.203,0c-0.832-4.326-1.164-146.651-0.385-167.562c15.056,0,30.119,0,45.367,0
		c-0.066-0.063,0.072,0.033,0.16,0.163c0.082,0.121,0.154,0.278,0.154,0.42c0.006,40.275,0.006,80.549,0.006,120.984
		c25.308,0,50.449,0,75.924,0c0-40.382,0-80.914,0-122.372"/>
	<path fill-rule="evenodd" clip-rule="evenodd" fill="#6A8C8C" d="M330.996,173.789c0-31.294,0-61.313,0-91.499
		c15.233,0,30.301,0,45.609,0c0,65.729,0,131.616,0,198.048c-40.556-40.555-80.865-80.865-121.482-121.482
		c0,30.455,0,60.47,0,90.455c-4.105,0.753-33.109,0.969-45.832,0.364c0-65.882,0-131.77,0-197.591
		C249.644,92.437,289.938,132.731,330.996,173.789z"/>
</g>
</svg>
